<?xml version="1.0" encoding="utf-8"?>
<!-- Generator: Adobe Illustrator 22.1.0, SVG Export Plug-In . SVG Version: 6.00 Build 0)  -->
<svg version="1.1" id="Layer_1" xmlns="http://www.w3.org/2000/svg" xmlns:xlink="http://www.w3.org/1999/xlink" x="0px" y="0px"
	 viewBox="0 0 481 108" style="enable-background:new 0 0 481 108;" xml:space="preserve">
<style type="text/css">
	.st0{fill:#FFE121;}
</style>
<title>Group</title>
<desc>Created with Sketch.</desc>
<g id="Page-1">
	<g id="horizontal-company-logo_full-color-positive-version" transform="translate(-54.000000, -54.000000)">
		<g id="Group" transform="translate(54.000000, 54.000000)">
			<path id="Fill-1" class="st0" d="M108,54c0-29.8-24.2-54-54-54C24.2,0,0,24.2,0,54s24.2,54,54,54C83.8,108,108,83.8,108,54"/>
			<path id="Fill-2" d="M51.6,25.7v36.4c-10,0-18.2-8.1-18.2-18.2S41.5,25.7,51.6,25.7"/>
			<path id="Fill-3" d="M56.4,82.3V45.9c10,0,18.2,8.1,18.2,18.2S66.5,82.3,56.4,82.3"/>
			<path id="Fill-4" d="M73.6,34.3c0-4.7-3.8-8.6-8.6-8.6c-4.7,0-8.6,3.8-8.6,8.6c0,4.7,3.8,8.6,8.6,8.6
				C69.7,42.8,73.6,39,73.6,34.3"/>
			<path id="Fill-5" d="M51.6,73.7c0-4.7-3.8-8.6-8.6-8.6c-4.7,0-8.6,3.8-8.6,8.6c0,4.7,3.8,8.6,8.6,8.6
				C47.7,82.3,51.6,78.5,51.6,73.7"/>
			<path id="Fill-6" d="M147.4,66.2c0-3,1.8-5,4.5-5c2.8,0,4.7,2.1,4.7,4.2c0,1-0.2,1.8-0.6,2.6c1.6,1.1,3.9,1.8,6.7,1.8
				c4.7,0,7.6-2.1,7.6-5.8c0-3.5-3.6-5.2-7.8-6.7C154.5,54.5,149,51.9,149,44c0-6.8,5.5-12.1,14.1-12.1c8,0,14.1,4.1,14.1,9.2
				c0,3-1.9,4.8-4.3,4.8c-3,0-4.7-2.2-4.7-4.3c0-1,0.2-1.5,0.5-2c-1.2-0.7-3-1.3-5.6-1.3c-4.2,0-6.7,2.1-6.7,5.2
				c0,3.5,3.6,5,7.8,6.6c7.6,2.7,13.4,5.4,13.4,13.3c0,8.1-6.3,12.7-15,12.7C154.1,76.1,147.4,71.3,147.4,66.2"/>
			<path id="Fill-7" d="M186.9,71.9c-0.6-1.2-1-2.7-1-4.5V52.9h-5.5v-6h5.5v-6l7-3v9h8.6v6h-8.6v13.2c0,0.9,0.1,1.5,0.5,2.1
				c0.5,0.9,1.6,1.4,3,1.4c1.8,0,3.9-0.7,5.6-1.5l-0.6,6.1c-1.9,1-4.2,1.7-6.8,1.7C191.1,75.8,188.3,74.6,186.9,71.9"/>
			<path id="Fill-8" d="M228.1,61.1c0-5.2-3.2-8.8-7.8-8.8c-4.6,0-7.8,3.6-7.8,8.8s3.2,8.8,7.8,8.8
				C224.9,69.9,228.1,66.3,228.1,61.1z M205.2,61.1c0-7.8,5.8-14.7,15.1-14.7c9.4,0,15.1,6.8,15.1,14.7c0,7.8-5.8,14.7-15.1,14.7
				C210.9,75.8,205.2,69,205.2,61.1z"/>
			<path id="Fill-9" d="M264.1,51.1c0,2.4-1.9,4.4-4.2,4.4c-2.1,0-3.6-1.2-4.1-2.5c-2,0.7-4.3,2.9-5.6,5.4v11.1h4.9v5.8h-16.2v-5.8
				h4.2V52.9h-4.2v-6h11v6.4c2.4-3.8,5.4-6.9,9-6.9C262.4,46.4,264.1,48.6,264.1,51.1"/>
			<path id="Fill-10" d="M274,88.2c-3.8,0-6.1-2.2-6.1-4.5c0-2.4,1.6-3.6,3.5-3.6c1.7,0,2.7,1,3.1,2.1c0.7-0.2,1.5-0.6,2.3-1.7
				c0.5-0.6,0.8-1.3,1.3-2.2l2.1-4.5l-10.1-21h-3.5v-6h14.6v5.6h-4.1l6.5,14.9l6.6-14.9h-4.4v-5.6h14.6v6H297L283.7,81
				c-0.6,1.3-1.4,2.5-2.2,3.4C279.4,86.9,276.8,88.2,274,88.2"/>
			<path id="Fill-11" d="M326.1,61.1c0-5.4-3.4-8.5-7.5-8.5c-2.7,0-4.8,1.2-6.7,2.8v12.2c1.9,1.3,4.1,2.2,6.7,2.2
				C322.5,69.7,326.1,66.7,326.1,61.1z M311.1,72.6l-1.6,2.8h-4.8V33.9h-4.3v-6h11.3v22.1c2.1-2,4.7-3.6,8.3-3.6
				c7.5,0,13.1,6,13.1,14.6c0,8.2-6,14.8-13.6,14.8C316.1,75.8,313.5,74.5,311.1,72.6z"/>
			<polyline id="Fill-12" points="336.3,69.5 340.7,69.5 340.7,33.9 336.3,33.9 336.3,27.9 347.8,27.9 347.8,69.5 352,69.5 
				352,75.3 336.3,75.3 336.3,69.5 			"/>
			<path id="Fill-13" d="M377.8,61.1c0-5.2-3.2-8.8-7.8-8.8s-7.8,3.6-7.8,8.8s3.2,8.8,7.8,8.8S377.8,66.3,377.8,61.1z M354.9,61.1
				c0-7.8,5.8-14.7,15.1-14.7c9.4,0,15.1,6.8,15.1,14.7c0,7.8-5.8,14.7-15.1,14.7C360.6,75.8,354.9,69,354.9,61.1z"/>
			<path id="Fill-14" d="M389.1,60.9c0-7.4,6-14.4,14.4-14.4c7.8,0,12.9,5,12.9,9.5c0,3-2,4.8-4.5,4.8c-2.3,0-4.3-1.9-4.3-4.3
				c0-0.8,0.4-1.8,0.9-2.4c-0.5-0.7-2.3-1.9-5-1.9c-3.2,0-7.2,2.7-7.2,8.9c0,5.4,4.1,8.9,9.2,8.9c3.4,0,6.4-1,10.1-3l-0.6,6.3
				c-3,1.7-6,2.6-10.1,2.6C395.9,75.8,389.1,70,389.1,60.9"/>
			<polyline id="Fill-15" points="420,69.5 424.2,69.5 424.2,33.9 420,33.9 420,27.9 431.3,27.9 431.3,59.7 439.5,52.6 435.6,52.6 
				435.6,46.9 452.4,46.9 452.4,52.9 447.1,52.9 440.5,58.5 447.7,69.3 452.4,69.3 452.4,75.3 443.5,75.3 435.3,62.5 431.3,66 
				431.3,69.6 434.8,69.6 434.8,75.3 420,75.3 420,69.5 			"/>
			<path id="Fill-16" d="M476.6,57c-2.3,0-3.8-1.4-3.8-3.5c0-0.5,0-0.8,0.1-1.2c-1.2-0.5-2.6-0.7-4-0.7c-3.2,0-4.7,1.4-4.7,2.9
				c0,1.6,1.6,2.5,6,3.6c6.8,1.8,10.7,3.5,10.7,8.6c0,6-5.6,9.1-12,9.1c-4.3,0-9-1.6-10.9-3.4c-1.2-1.2-1.6-2.3-1.6-3.8
				c0-2.1,1.6-3.8,3.8-3.8c1.9,0,3.8,1.3,3.8,3.8c0,0.4-0.1,0.8-0.1,1.2c1.3,0.5,3.1,0.9,5.1,0.9c2.8,0,5.2-1,5.2-3
				c0-1.4-1.2-2.3-5.6-3.4c-7.8-2.1-11.1-3.9-11.1-8.8c0-4.4,3.6-9,11.6-9c3.4,0,7.6,1.3,9.5,3.2c1,1,1.6,2.3,1.6,3.6
				C480.1,55.5,478.6,57,476.6,57"/>
		</g>
	</g>
</g>
</svg>
