<?xml version="1.0" encoding="UTF-8"?>
<svg width="481px" height="108px" viewBox="0 0 481 108" version="1.1" xmlns="http://www.w3.org/2000/svg" xmlns:xlink="http://www.w3.org/1999/xlink">
    <!-- Generator: Sketch 50.2 (55047) - http://www.bohemiancoding.com/sketch -->
    <title>Group</title>
    <desc>Created with Sketch.</desc>
    <defs></defs>
    <g id="Page-1" stroke="none" stroke-width="1" fill="none" fill-rule="evenodd">
        <g id="horizontal-company-logo_full-color-positive-version" transform="translate(-54.000000, -54.000000)">
            <g id="Group" transform="translate(54.000000, 54.000000)">
                <path d="M108.004,54.002 C108.004,24.178 83.827,0 54.002,0 C24.178,0 0,24.178 0,54.002 C0,83.826 24.178,108.004 54.002,108.004 C83.827,108.004 108.004,83.826 108.004,54.002" id="Fill-1" fill="#FFE121"></path>
                <path d="M51.57,25.702 L51.57,62.074 C41.526,62.074 33.384,53.933 33.384,43.888 C33.384,33.843 41.526,25.702 51.57,25.702" id="Fill-2" fill="#000000"></path>
                <path d="M56.43,82.299 L56.43,45.926 C66.474,45.926 74.616,54.067 74.616,64.112 C74.616,74.157 66.474,82.299 56.43,82.299" id="Fill-3" fill="#000000"></path>
                <path d="M73.574,34.273 C73.574,29.54 69.736,25.702 65.002,25.702 C60.267,25.702 56.43,29.54 56.43,34.273 C56.43,39.008 60.267,42.846 65.002,42.846 C69.736,42.846 73.574,39.008 73.574,34.273" id="Fill-4" fill="#000000"></path>
                <path d="M51.57,73.727 C51.57,68.992 47.733,65.154 42.998,65.154 C38.264,65.154 34.426,68.992 34.426,73.727 C34.426,78.461 38.264,82.299 42.998,82.299 C47.733,82.299 51.57,78.461 51.57,73.727" id="Fill-5" fill="#000000"></path>
                <path d="M147.355,66.165 C147.355,63.124 149.167,61.118 151.82,61.118 C154.667,61.118 156.479,63.254 156.479,65.324 C156.479,66.359 156.285,67.136 155.896,67.912 C157.45,69.012 159.843,69.724 162.626,69.724 C167.285,69.724 170.261,67.652 170.261,63.965 C170.261,60.471 166.703,58.788 162.432,57.3 C154.538,54.453 148.973,51.93 148.973,44.035 C148.973,37.241 154.473,31.936 163.079,31.936 C171.038,31.936 177.185,36.012 177.185,41.124 C177.185,44.165 175.309,45.911 172.85,45.911 C169.873,45.911 168.19,43.711 168.19,41.577 C168.19,40.542 168.385,40.088 168.644,39.57 C167.479,38.858 165.667,38.277 163.014,38.277 C158.808,38.277 156.35,40.412 156.35,43.518 C156.35,47.011 159.908,48.565 164.179,50.117 C171.815,52.836 177.573,55.488 177.573,63.383 C177.573,71.471 171.296,76.064 162.562,76.064 C154.15,76.064 147.355,71.342 147.355,66.165" id="Fill-6" fill="#000000"></path>
                <path d="M186.898,71.924 C186.252,70.759 185.928,69.271 185.928,67.46 L185.928,52.9 L180.428,52.9 L180.428,46.947 L185.928,46.947 L185.928,40.994 L192.916,37.953 L192.916,46.947 L201.522,46.947 L201.522,52.9 L192.916,52.9 L192.916,66.101 C192.916,67.006 193.045,67.588 193.369,68.171 C193.887,69.077 194.922,69.53 196.346,69.53 C198.157,69.53 200.228,68.817 201.911,68.041 L201.328,74.124 C199.387,75.094 197.122,75.807 194.534,75.807 C191.104,75.807 188.322,74.642 186.898,71.924" id="Fill-7" fill="#000000"></path>
                <path d="M228.119,61.118 C228.119,55.941 224.884,52.317 220.289,52.317 C215.696,52.317 212.46,55.941 212.46,61.118 C212.46,66.295 215.696,69.918 220.289,69.918 C224.884,69.918 228.119,66.295 228.119,61.118 Z M205.213,61.118 C205.213,53.353 211.036,46.43 220.289,46.43 C229.672,46.43 235.367,53.223 235.367,61.118 C235.367,68.883 229.542,75.807 220.289,75.807 C210.907,75.807 205.213,69.012 205.213,61.118 Z" id="Fill-8" fill="#000000"></path>
                <path d="M264.098,51.088 C264.098,53.482 262.222,55.488 259.892,55.488 C257.757,55.488 256.333,54.259 255.751,52.965 C253.745,53.677 251.416,55.877 250.121,58.335 L250.121,69.465 L255.038,69.465 L255.038,75.288 L238.862,75.288 L238.862,69.465 L243.068,69.465 L243.068,52.9 L238.862,52.9 L238.862,46.947 L249.862,46.947 L249.862,53.353 C252.257,49.536 255.232,46.43 258.857,46.43 C262.35,46.43 264.098,48.565 264.098,51.088" id="Fill-9" fill="#000000"></path>
                <path d="M273.987,88.166 C270.233,88.166 267.903,85.966 267.903,83.7 C267.903,81.306 269.521,80.076 271.398,80.076 C273.08,80.076 274.051,81.111 274.504,82.212 C275.216,82.019 275.993,81.565 276.768,80.529 C277.222,79.948 277.61,79.235 278.063,78.33 L280.199,73.864 L270.103,52.9 L266.61,52.9 L266.61,46.947 L281.234,46.947 L281.234,52.577 L277.093,52.577 L283.627,67.524 L290.227,52.577 L285.827,52.577 L285.827,46.947 L300.387,46.947 L300.387,52.9 L296.957,52.9 L283.692,81.047 C283.046,82.341 282.333,83.506 281.492,84.477 C279.422,86.871 276.834,88.166 273.987,88.166" id="Fill-10" fill="#000000"></path>
                <path d="M326.084,61.054 C326.084,55.618 322.719,52.512 318.577,52.512 C315.925,52.512 313.789,53.677 311.848,55.358 L311.848,67.524 C313.724,68.817 315.925,69.724 318.577,69.724 C322.524,69.724 326.084,66.683 326.084,61.054 Z M311.136,72.571 L309.584,75.418 L304.795,75.418 L304.795,33.877 L300.525,33.877 L300.525,27.924 L311.848,27.924 L311.848,50.053 C313.919,48.047 316.571,46.43 320.195,46.43 C327.701,46.43 333.331,52.447 333.331,60.988 C333.331,69.206 327.378,75.807 319.742,75.807 C316.119,75.807 313.53,74.513 311.136,72.571 Z" id="Fill-11" fill="#000000"></path>
                <polyline id="Fill-12" fill="#000000" points="336.302 69.465 340.702 69.465 340.702 33.877 336.302 33.877 336.302 27.924 347.755 27.924 347.755 69.465 351.961 69.465 351.961 75.288 336.302 75.288 336.302 69.465"></polyline>
                <path d="M377.803,61.118 C377.803,55.941 374.567,52.317 369.973,52.317 C365.379,52.317 362.143,55.941 362.143,61.118 C362.143,66.295 365.379,69.918 369.973,69.918 C374.567,69.918 377.803,66.295 377.803,61.118 Z M354.896,61.118 C354.896,53.353 360.72,46.43 369.973,46.43 C379.355,46.43 385.05,53.223 385.05,61.118 C385.05,68.883 379.225,75.807 369.973,75.807 C360.59,75.807 354.896,69.012 354.896,61.118 Z" id="Fill-13" fill="#000000"></path>
                <path d="M389.14,60.859 C389.14,53.482 395.093,46.43 403.505,46.43 C411.27,46.43 416.382,51.477 416.382,55.941 C416.382,58.918 414.375,60.729 411.852,60.729 C409.522,60.729 407.582,58.788 407.582,56.459 C407.582,55.618 407.971,54.647 408.487,54.064 C407.971,53.353 406.223,52.123 403.44,52.123 C400.205,52.123 396.193,54.777 396.193,60.988 C396.193,66.424 400.334,69.853 405.382,69.853 C408.811,69.853 411.787,68.883 415.475,66.877 L414.893,73.218 C411.852,74.965 408.94,75.807 404.8,75.807 C395.869,75.807 389.14,69.982 389.14,60.859" id="Fill-14" fill="#000000"></path>
                <polyline id="Fill-15" fill="#000000" points="420 69.465 424.206 69.465 424.206 33.877 420 33.877 420 27.924 431.259 27.924 431.259 59.694 439.541 52.577 435.594 52.577 435.594 46.947 452.353 46.947 452.353 52.9 447.112 52.9 440.513 58.465 447.695 69.336 452.353 69.336 452.353 75.288 443.489 75.288 435.336 62.541 431.259 65.971 431.259 69.595 434.817 69.595 434.817 75.288 420 75.288 420 69.465"></polyline>
                <path d="M476.567,57.042 C474.302,57.042 472.75,55.683 472.75,53.547 C472.75,53.094 472.75,52.706 472.879,52.317 C471.715,51.865 470.29,51.606 468.866,51.606 C465.697,51.606 464.143,53.03 464.143,54.518 C464.143,56.135 465.761,56.977 470.096,58.142 C476.891,59.953 480.838,61.635 480.838,66.747 C480.838,72.699 475.272,75.87 468.866,75.87 C464.532,75.87 459.873,74.318 457.996,72.441 C456.831,71.276 456.378,70.112 456.378,68.623 C456.378,66.553 457.931,64.806 460.132,64.806 C462.073,64.806 463.949,66.101 463.949,68.559 C463.949,68.947 463.884,69.336 463.819,69.724 C465.114,70.241 466.926,70.629 468.932,70.629 C471.779,70.629 474.107,69.658 474.107,67.588 C474.107,66.165 472.879,65.324 468.544,64.159 C460.714,62.089 457.414,60.212 457.414,55.358 C457.414,50.959 461.037,46.365 468.996,46.365 C472.426,46.365 476.567,47.659 478.508,49.6 C479.543,50.636 480.061,51.865 480.061,53.223 C480.061,55.488 478.638,57.042 476.567,57.042" id="Fill-16" fill="#000000"></path>
            </g>
        </g>
    </g>
</svg>